<?xml version="1.0" encoding="iso-8859-1"?>
<!-- Generator: Adobe Illustrator 18.1.1, SVG Export Plug-In . SVG Version: 6.00 Build 0)  -->
<svg version="1.1" id="Capa_1" xmlns="http://www.w3.org/2000/svg" xmlns:xlink="http://www.w3.org/1999/xlink" x="0px" y="0px"
	 viewBox="0 0 16.847 16.847" style="enable-background:new 0 0 16.847 16.847;" xml:space="preserve">
<g>
	<path style="fill:#14e092;" d="M9.968,3.497H9.239V2.743h0.753v0.729h0.728h0.753v0.753H10.72H9.968V3.497z M6.19,14.12h0.752
		v-0.752H6.19V14.12z M0,7.24h0.751v-1.51H0V7.24z M12.99,5.723h0.753h0.752V4.97h-0.752h-0.749V4.231h-0.752h-0.753v0.754h0.753
		h0.748C12.99,4.985,12.99,5.723,12.99,5.723z M16.046,5.733h-0.021h-0.751H14.5v0.752h0.774h0.751v6.09h-0.707h-0.753v0.752h0.753
		h0.707h0.046h0.776V5.733H16.046z M12.266,13.349v0.752h1.128h1.127v-0.752h-1.127H12.266z M8.399,12.599v-0.752h-1.49H5.418v0.745
		H5.416v0.752h0.752v-0.745h0.741C6.909,12.598,8.399,12.598,8.399,12.599z M7.614,10.309V9.557H6.122h-1.49v0.745H4.63v1.552h0.753
		v-1.545h0.739H7.614z M7.669,8.021V7.268H5.35H3.978H3.86H0.758v0.752h3.101v1.517h0.752V8.021H5.35H7.669z M6.949,4.261h0.753
		V2.725h0.381h1.14V1.972h-1.14H6.945v0.753h0.004C6.949,2.725,6.949,4.261,6.949,4.261z M6.967,14.123v0.751h2.628h2.628v-0.751
		H9.595H6.967z M10.692,5.719V4.967H8.474V4.24H7.722v0.728H5.721H0.748v0.752h4.973C5.721,5.719,10.692,5.719,10.692,5.719z"/>
</g>
<g>
</g>
<g>
</g>
<g>
</g>
<g>
</g>
<g>
</g>
<g>
</g>
<g>
</g>
<g>
</g>
<g>
</g>
<g>
</g>
<g>
</g>
<g>
</g>
<g>
</g>
<g>
</g>
<g>
</g>
</svg>
